<svg width="320" height="320" viewBox="0 0 320 320" xmlns="http://www.w3.org/2000/svg" shape-rendering="crispEdges"><rect width="100%" height="100%" fill="#e2d6e2" /><rect width="140" height="10" x="90" y="210" fill="#fe500c" /><rect width="140" height="10" x="90" y="220" fill="#fe500c" /><rect width="140" height="10" x="90" y="230" fill="#fe500c" /><rect width="140" height="10" x="90" y="240" fill="#fe500c" /><rect width="20" height="10" x="90" y="250" fill="#fe500c" /><rect width="110" height="10" x="120" y="250" fill="#fe500c" /><rect width="20" height="10" x="90" y="260" fill="#fe500c" /><rect width="110" height="10" x="120" y="260" fill="#fe500c" /><rect width="20" height="10" x="90" y="270" fill="#fe500c" /><rect width="110" height="10" x="120" y="270" fill="#fe500c" /><rect width="20" height="10" x="90" y="280" fill="#fe500c" /><rect width="110" height="10" x="120" y="280" fill="#fe500c" /><rect width="20" height="10" x="90" y="290" fill="#fe500c" /><rect width="110" height="10" x="120" y="290" fill="#fe500c" /><rect width="20" height="10" x="90" y="300" fill="#fe500c" /><rect width="110" height="10" x="120" y="300" fill="#fe500c" /><rect width="20" height="10" x="90" y="310" fill="#fe500c" /><rect width="110" height="10" x="120" y="310" fill="#fe500c" /><rect width="10" height="10" x="120" y="210" fill="#ffc110" /><rect width="10" height="10" x="190" y="210" fill="#ffc110" /><rect width="10" height="10" x="130" y="220" fill="#ffc110" /><rect width="10" height="10" x="180" y="220" fill="#ffc110" /><rect width="10" height="10" x="140" y="230" fill="#ffc110" /><rect width="10" height="10" x="170" y="230" fill="#ffc110" /><rect width="20" height="10" x="150" y="240" fill="#ffc110" /><rect width="20" height="10" x="150" y="250" fill="#ffc110" /><rect width="40" height="10" x="140" y="260" fill="#ffc110" /><rect width="40" height="10" x="140" y="270" fill="#ffc110" /><rect width="60" height="10" x="130" y="280" fill="#ffc110" /><rect width="60" height="10" x="130" y="290" fill="#ffc110" /><rect width="10" height="10" x="0" y="0" fill="#c9d91a" /><rect width="10" height="10" x="40" y="0" fill="#c9d91a" /><rect width="10" height="10" x="230" y="0" fill="#c9d91a" /><rect width="10" height="10" x="260" y="0" fill="#c9d91a" /><rect width="10" height="10" x="10" y="10" fill="#c9d91a" /><rect width="10" height="10" x="20" y="10" fill="#e11c3d" /><rect width="10" height="10" x="30" y="10" fill="#c9d91a" /><rect width="10" height="10" x="50" y="10" fill="#6e0a0a" /><rect width="10" height="10" x="60" y="10" fill="#e11c3d" /><rect width="10" height="10" x="240" y="10" fill="#c9d91a" /><rect width="10" height="10" x="250" y="10" fill="#e11c3d" /><rect width="10" height="10" x="260" y="10" fill="#6e0a0a" /><rect width="10" height="10" x="20" y="20" fill="#c9d91a" /><rect width="20" height="10" x="30" y="20" fill="#e11c3d" /><rect width="10" height="10" x="50" y="20" fill="#6e0a0a" /><rect width="10" height="10" x="60" y="20" fill="#e11c3d" /><rect width="10" height="10" x="90" y="20" fill="#c9d91a" /><rect width="10" height="10" x="220" y="20" fill="#c9d91a" /><rect width="20" height="10" x="240" y="20" fill="#e11c3d" /><rect width="10" height="10" x="260" y="20" fill="#6e0a0a" /><rect width="10" height="10" x="270" y="20" fill="#e11c3d" /><rect width="10" height="10" x="10" y="30" fill="#e11c3d" /><rect width="10" height="10" x="20" y="30" fill="#c9d91a" /><rect width="10" height="10" x="30" y="30" fill="#e11c3d" /><rect width="20" height="10" x="40" y="30" fill="#6e0a0a" /><rect width="10" height="10" x="60" y="30" fill="#e11c3d" /><rect width="10" height="10" x="100" y="30" fill="#e11c3d" /><rect width="10" height="10" x="160" y="30" fill="#c9d91a" /><rect width="10" height="10" x="240" y="30" fill="#c9d91a" /><rect width="10" height="10" x="250" y="30" fill="#e11c3d" /><rect width="20" height="10" x="260" y="30" fill="#6e0a0a" /><rect width="10" height="10" x="280" y="30" fill="#e11c3d" /><rect width="10" height="10" x="20" y="40" fill="#e11c3d" /><rect width="20" height="10" x="30" y="40" fill="#6e0a0a" /><rect width="10" height="10" x="50" y="40" fill="#e11c3d" /><rect width="30" height="10" x="60" y="40" fill="#c9d91a" /><rect width="10" height="10" x="100" y="40" fill="#c9d91a" /><rect width="20" height="10" x="110" y="40" fill="#e11c3d" /><rect width="30" height="10" x="130" y="40" fill="#c9d91a" /><rect width="10" height="10" x="160" y="40" fill="#e11c3d" /><rect width="20" height="10" x="170" y="40" fill="#c9d91a" /><rect width="10" height="10" x="190" y="40" fill="#e11c3d" /><rect width="10" height="10" x="230" y="40" fill="#c9d91a" /><rect width="10" height="10" x="250" y="40" fill="#c9d91a" /><rect width="10" height="10" x="260" y="40" fill="#e11c3d" /><rect width="20" height="10" x="270" y="40" fill="#6e0a0a" /><rect width="10" height="10" x="290" y="40" fill="#e11c3d" /><rect width="10" height="10" x="20" y="50" fill="#e11c3d" /><rect width="20" height="10" x="30" y="50" fill="#6e0a0a" /><rect width="30" height="10" x="50" y="50" fill="#e11c3d" /><rect width="30" height="10" x="90" y="50" fill="#e11c3d" /><rect width="10" height="10" x="120" y="50" fill="#c9d91a" /><rect width="10" height="10" x="130" y="50" fill="#e11c3d" /><rect width="10" height="10" x="140" y="50" fill="#c9d91a" /><rect width="40" height="10" x="150" y="50" fill="#e11c3d" /><rect width="10" height="10" x="190" y="50" fill="#c9d91a" /><rect width="10" height="10" x="200" y="50" fill="#e11c3d" /><rect width="10" height="10" x="210" y="50" fill="#c9d91a" /><rect width="20" height="10" x="240" y="50" fill="#c9d91a" /><rect width="10" height="10" x="260" y="50" fill="#e11c3d" /><rect width="20" height="10" x="270" y="50" fill="#6e0a0a" /><rect width="10" height="10" x="290" y="50" fill="#e11c3d" /><rect width="10" height="10" x="10" y="60" fill="#c9d91a" /><rect width="10" height="10" x="20" y="60" fill="#e11c3d" /><rect width="40" height="10" x="30" y="60" fill="#6e0a0a" /><rect width="30" height="10" x="70" y="60" fill="#e11c3d" /><rect width="120" height="10" x="100" y="60" fill="#6e0a0a" /><rect width="10" height="10" x="220" y="60" fill="#e11c3d" /><rect width="10" height="10" x="240" y="60" fill="#e11c3d" /><rect width="40" height="10" x="250" y="60" fill="#6e0a0a" /><rect width="10" height="10" x="290" y="60" fill="#e11c3d" /><rect width="10" height="10" x="20" y="70" fill="#c9d91a" /><rect width="10" height="10" x="30" y="70" fill="#e11c3d" /><rect width="40" height="10" x="40" y="70" fill="#6e0a0a" /><rect width="10" height="10" x="80" y="70" fill="#e11c3d" /><rect width="140" height="10" x="90" y="70" fill="#6e0a0a" /><rect width="10" height="10" x="230" y="70" fill="#e11c3d" /><rect width="40" height="10" x="240" y="70" fill="#6e0a0a" /><rect width="10" height="10" x="280" y="70" fill="#e11c3d" /><rect width="10" height="10" x="40" y="80" fill="#e11c3d" /><rect width="220" height="10" x="50" y="80" fill="#6e0a0a" /><rect width="10" height="10" x="270" y="80" fill="#e11c3d" /><rect width="10" height="10" x="20" y="90" fill="#c9d91a" /><rect width="10" height="10" x="40" y="90" fill="#c9d91a" /><rect width="220" height="10" x="50" y="90" fill="#6e0a0a" /><rect width="10" height="10" x="270" y="90" fill="#c9d91a" /><rect width="10" height="10" x="30" y="100" fill="#e11c3d" /><rect width="10" height="10" x="40" y="100" fill="#c9d91a" /><rect width="10" height="10" x="50" y="100" fill="#e11c3d" /><rect width="200" height="10" x="60" y="100" fill="#6e0a0a" /><rect width="10" height="10" x="260" y="100" fill="#e11c3d" /><rect width="10" height="10" x="30" y="110" fill="#c9d91a" /><rect width="20" height="10" x="40" y="110" fill="#e11c3d" /><rect width="200" height="10" x="60" y="110" fill="#6e0a0a" /><rect width="10" height="10" x="260" y="110" fill="#c9d91a" /><rect width="10" height="10" x="20" y="120" fill="#e11c3d" /><rect width="10" height="10" x="40" y="120" fill="#c9d91a" /><rect width="20" height="10" x="50" y="120" fill="#e11c3d" /><rect width="180" height="10" x="70" y="120" fill="#6e0a0a" /><rect width="10" height="10" x="250" y="120" fill="#e11c3d" /><rect width="10" height="10" x="30" y="130" fill="#c9d91a" /><rect width="10" height="10" x="50" y="130" fill="#c9d91a" /><rect width="10" height="10" x="60" y="130" fill="#e11c3d" /><rect width="180" height="10" x="70" y="130" fill="#6e0a0a" /><rect width="10" height="10" x="250" y="130" fill="#e11c3d" /><rect width="20" height="10" x="40" y="140" fill="#c9d91a" /><rect width="10" height="10" x="60" y="140" fill="#e11c3d" /><rect width="180" height="10" x="70" y="140" fill="#6e0a0a" /><rect width="10" height="10" x="250" y="140" fill="#e11c3d" /><rect width="20" height="10" x="50" y="150" fill="#e11c3d" /><rect width="180" height="10" x="70" y="150" fill="#6e0a0a" /><rect width="10" height="10" x="250" y="150" fill="#e11c3d" /><rect width="10" height="10" x="60" y="160" fill="#e11c3d" /><rect width="180" height="10" x="70" y="160" fill="#6e0a0a" /><rect width="10" height="10" x="250" y="160" fill="#e11c3d" /><rect width="10" height="10" x="60" y="170" fill="#c9d91a" /><rect width="10" height="10" x="70" y="170" fill="#e11c3d" /><rect width="160" height="10" x="80" y="170" fill="#6e0a0a" /><rect width="10" height="10" x="240" y="170" fill="#e11c3d" /><rect width="10" height="10" x="70" y="180" fill="#e11c3d" /><rect width="160" height="10" x="80" y="180" fill="#6e0a0a" /><rect width="10" height="10" x="240" y="180" fill="#e11c3d" /><rect width="10" height="10" x="80" y="190" fill="#e11c3d" /><rect width="60" height="10" x="90" y="190" fill="#6e0a0a" /><rect width="30" height="10" x="150" y="190" fill="#e11c3d" /><rect width="50" height="10" x="180" y="190" fill="#6e0a0a" /><rect width="10" height="10" x="230" y="190" fill="#e11c3d" /><rect width="10" height="10" x="80" y="200" fill="#e11c3d" /><rect width="60" height="10" x="90" y="200" fill="#6e0a0a" /><rect width="20" height="10" x="150" y="200" fill="#e11c3d" /><rect width="60" height="10" x="170" y="200" fill="#6e0a0a" /><rect width="10" height="10" x="230" y="200" fill="#c9d91a" /><rect width="10" height="10" x="80" y="210" fill="#c9d91a" /><rect width="40" height="10" x="90" y="210" fill="#e11c3d" /><rect width="60" height="10" x="130" y="210" fill="#6e0a0a" /><rect width="40" height="10" x="190" y="210" fill="#e11c3d" /><rect width="10" height="10" x="120" y="220" fill="#c9d91a" /><rect width="50" height="10" x="130" y="220" fill="#e11c3d" /><rect width="10" height="10" x="180" y="220" fill="#c9d91a" /><rect width="60" height="10" x="100" y="110" fill="#2b83f6" /><rect width="60" height="10" x="170" y="110" fill="#2b83f6" /><rect width="10" height="10" x="100" y="120" fill="#2b83f6" /><rect width="20" height="10" x="110" y="120" fill="#ffffff" /><rect width="20" height="10" x="130" y="120" fill="#000000" /><rect width="10" height="10" x="150" y="120" fill="#2b83f6" /><rect width="10" height="10" x="170" y="120" fill="#2b83f6" /><rect width="20" height="10" x="180" y="120" fill="#ffffff" /><rect width="20" height="10" x="200" y="120" fill="#000000" /><rect width="10" height="10" x="220" y="120" fill="#2b83f6" /><rect width="40" height="10" x="70" y="130" fill="#2b83f6" /><rect width="20" height="10" x="110" y="130" fill="#ffffff" /><rect width="20" height="10" x="130" y="130" fill="#000000" /><rect width="30" height="10" x="150" y="130" fill="#2b83f6" /><rect width="20" height="10" x="180" y="130" fill="#ffffff" /><rect width="20" height="10" x="200" y="130" fill="#000000" /><rect width="10" height="10" x="220" y="130" fill="#2b83f6" /><rect width="10" height="10" x="70" y="140" fill="#2b83f6" /><rect width="10" height="10" x="100" y="140" fill="#2b83f6" /><rect width="20" height="10" x="110" y="140" fill="#ffffff" /><rect width="20" height="10" x="130" y="140" fill="#000000" /><rect width="10" height="10" x="150" y="140" fill="#2b83f6" /><rect width="10" height="10" x="170" y="140" fill="#2b83f6" /><rect width="20" height="10" x="180" y="140" fill="#ffffff" /><rect width="20" height="10" x="200" y="140" fill="#000000" /><rect width="10" height="10" x="220" y="140" fill="#2b83f6" /><rect width="10" height="10" x="70" y="150" fill="#2b83f6" /><rect width="10" height="10" x="100" y="150" fill="#2b83f6" /><rect width="20" height="10" x="110" y="150" fill="#ffffff" /><rect width="20" height="10" x="130" y="150" fill="#000000" /><rect width="10" height="10" x="150" y="150" fill="#2b83f6" /><rect width="10" height="10" x="170" y="150" fill="#2b83f6" /><rect width="20" height="10" x="180" y="150" fill="#ffffff" /><rect width="20" height="10" x="200" y="150" fill="#000000" /><rect width="10" height="10" x="220" y="150" fill="#2b83f6" /><rect width="60" height="10" x="100" y="160" fill="#2b83f6" /><rect width="60" height="10" x="170" y="160" fill="#2b83f6" /></svg>