<svg width="320" height="320" viewBox="0 0 320 320" xmlns="http://www.w3.org/2000/svg" shape-rendering="crispEdges"><rect width="100%" height="100%" fill="#e2d6e2" /><rect width="140" height="10" x="90" y="210" fill="#c54e38" /><rect width="140" height="10" x="90" y="220" fill="#c54e38" /><rect width="140" height="10" x="90" y="230" fill="#c54e38" /><rect width="140" height="10" x="90" y="240" fill="#c54e38" /><rect width="20" height="10" x="90" y="250" fill="#c54e38" /><rect width="110" height="10" x="120" y="250" fill="#c54e38" /><rect width="20" height="10" x="90" y="260" fill="#c54e38" /><rect width="110" height="10" x="120" y="260" fill="#c54e38" /><rect width="20" height="10" x="90" y="270" fill="#c54e38" /><rect width="110" height="10" x="120" y="270" fill="#c54e38" /><rect width="20" height="10" x="90" y="280" fill="#c54e38" /><rect width="110" height="10" x="120" y="280" fill="#c54e38" /><rect width="20" height="10" x="90" y="290" fill="#c54e38" /><rect width="110" height="10" x="120" y="290" fill="#c54e38" /><rect width="20" height="10" x="90" y="300" fill="#c54e38" /><rect width="110" height="10" x="120" y="300" fill="#c54e38" /><rect width="20" height="10" x="90" y="310" fill="#c54e38" /><rect width="110" height="10" x="120" y="310" fill="#c54e38" /><rect width="20" height="10" x="160" y="240" fill="#d9391f" /><rect width="20" height="10" x="130" y="250" fill="#ffffff" /><rect width="10" height="10" x="170" y="250" fill="#ffffff" /><rect width="10" height="10" x="180" y="250" fill="#e7a32c" /><rect width="40" height="10" x="140" y="260" fill="#ffffff" /><rect width="20" height="10" x="150" y="270" fill="#ffffff" /><rect width="10" height="10" x="150" y="280" fill="#ffffff" /><rect width="10" height="10" x="150" y="290" fill="#e7a32c" /><rect width="10" height="10" x="70" y="40" fill="#ffffff" /><rect width="10" height="10" x="90" y="40" fill="#ffffff" /><rect width="10" height="10" x="110" y="40" fill="#ffffff" /><rect width="10" height="10" x="130" y="40" fill="#ffffff" /><rect width="10" height="10" x="150" y="40" fill="#ffffff" /><rect width="10" height="10" x="170" y="40" fill="#ffffff" /><rect width="10" height="10" x="190" y="40" fill="#ffffff" /><rect width="10" height="10" x="210" y="40" fill="#ffffff" /><rect width="10" height="10" x="230" y="40" fill="#ffffff" /><rect width="190" height="10" x="60" y="50" fill="#ffffff" /><rect width="170" height="10" x="70" y="60" fill="#ffffff" /><rect width="20" height="10" x="60" y="70" fill="#ffffff" /><rect width="150" height="10" x="80" y="70" fill="#2b83f6" /><rect width="20" height="10" x="230" y="70" fill="#ffffff" /><rect width="10" height="10" x="70" y="80" fill="#ffffff" /><rect width="10" height="10" x="80" y="80" fill="#2b83f6" /><rect width="20" height="10" x="90" y="80" fill="#7cc4f2" /><rect width="10" height="10" x="110" y="80" fill="#649020" /><rect width="100" height="10" x="120" y="80" fill="#7cc4f2" /><rect width="10" height="10" x="220" y="80" fill="#2b83f6" /><rect width="10" height="10" x="230" y="80" fill="#ffffff" /><rect width="20" height="10" x="60" y="90" fill="#ffffff" /><rect width="10" height="10" x="80" y="90" fill="#2b83f6" /><rect width="10" height="10" x="90" y="90" fill="#7cc4f2" /><rect width="30" height="10" x="100" y="90" fill="#649020" /><rect width="20" height="10" x="130" y="90" fill="#7cc4f2" /><rect width="10" height="10" x="150" y="90" fill="#649020" /><rect width="30" height="10" x="160" y="90" fill="#7cc4f2" /><rect width="10" height="10" x="190" y="90" fill="#e4c249" /><rect width="20" height="10" x="200" y="90" fill="#7cc4f2" /><rect width="10" height="10" x="220" y="90" fill="#2b83f6" /><rect width="20" height="10" x="230" y="90" fill="#ffffff" /><rect width="10" height="10" x="70" y="100" fill="#ffffff" /><rect width="10" height="10" x="80" y="100" fill="#2b83f6" /><rect width="90" height="10" x="90" y="100" fill="#649020" /><rect width="30" height="10" x="180" y="100" fill="#7cc4f2" /><rect width="10" height="10" x="210" y="100" fill="#649020" /><rect width="10" height="10" x="220" y="100" fill="#2b83f6" /><rect width="10" height="10" x="230" y="100" fill="#ffffff" /><rect width="20" height="10" x="60" y="110" fill="#ffffff" /><rect width="10" height="10" x="80" y="110" fill="#2b83f6" /><rect width="130" height="10" x="90" y="110" fill="#649020" /><rect width="10" height="10" x="220" y="110" fill="#2b83f6" /><rect width="20" height="10" x="230" y="110" fill="#ffffff" /><rect width="10" height="10" x="70" y="120" fill="#ffffff" /><rect width="10" height="10" x="80" y="120" fill="#2b83f6" /><rect width="130" height="10" x="90" y="120" fill="#649020" /><rect width="10" height="10" x="220" y="120" fill="#2b83f6" /><rect width="10" height="10" x="230" y="120" fill="#ffffff" /><rect width="20" height="10" x="60" y="130" fill="#ffffff" /><rect width="10" height="10" x="80" y="130" fill="#2b83f6" /><rect width="60" height="10" x="90" y="130" fill="#649020" /><rect width="10" height="10" x="150" y="130" fill="#395ed1" /><rect width="60" height="10" x="160" y="130" fill="#649020" /><rect width="10" height="10" x="220" y="130" fill="#2b83f6" /><rect width="20" height="10" x="230" y="130" fill="#ffffff" /><rect width="10" height="10" x="70" y="140" fill="#ffffff" /><rect width="10" height="10" x="80" y="140" fill="#2b83f6" /><rect width="60" height="10" x="90" y="140" fill="#649020" /><rect width="20" height="10" x="150" y="140" fill="#395ed1" /><rect width="50" height="10" x="170" y="140" fill="#649020" /><rect width="10" height="10" x="220" y="140" fill="#2b83f6" /><rect width="10" height="10" x="230" y="140" fill="#ffffff" /><rect width="20" height="10" x="60" y="150" fill="#ffffff" /><rect width="10" height="10" x="80" y="150" fill="#2b83f6" /><rect width="10" height="10" x="90" y="150" fill="#649020" /><rect width="60" height="10" x="100" y="150" fill="#7bba00" /><rect width="20" height="10" x="160" y="150" fill="#395ed1" /><rect width="30" height="10" x="180" y="150" fill="#7bba00" /><rect width="10" height="10" x="210" y="150" fill="#649020" /><rect width="10" height="10" x="220" y="150" fill="#2b83f6" /><rect width="20" height="10" x="230" y="150" fill="#ffffff" /><rect width="10" height="10" x="70" y="160" fill="#ffffff" /><rect width="10" height="10" x="80" y="160" fill="#2b83f6" /><rect width="70" height="10" x="90" y="160" fill="#7bba00" /><rect width="30" height="10" x="160" y="160" fill="#395ed1" /><rect width="30" height="10" x="190" y="160" fill="#7bba00" /><rect width="10" height="10" x="220" y="160" fill="#2b83f6" /><rect width="10" height="10" x="230" y="160" fill="#ffffff" /><rect width="20" height="10" x="60" y="170" fill="#ffffff" /><rect width="10" height="10" x="80" y="170" fill="#2b83f6" /><rect width="60" height="10" x="90" y="170" fill="#7bba00" /><rect width="30" height="10" x="150" y="170" fill="#395ed1" /><rect width="40" height="10" x="180" y="170" fill="#7bba00" /><rect width="10" height="10" x="220" y="170" fill="#2b83f6" /><rect width="20" height="10" x="230" y="170" fill="#ffffff" /><rect width="10" height="10" x="70" y="180" fill="#ffffff" /><rect width="10" height="10" x="80" y="180" fill="#2b83f6" /><rect width="70" height="10" x="90" y="180" fill="#7bba00" /><rect width="30" height="10" x="160" y="180" fill="#395ed1" /><rect width="30" height="10" x="190" y="180" fill="#7bba00" /><rect width="10" height="10" x="220" y="180" fill="#2b83f6" /><rect width="10" height="10" x="230" y="180" fill="#ffffff" /><rect width="20" height="10" x="60" y="190" fill="#ffffff" /><rect width="150" height="10" x="80" y="190" fill="#2b83f6" /><rect width="20" height="10" x="230" y="190" fill="#ffffff" /><rect width="170" height="10" x="70" y="200" fill="#ffffff" /><rect width="190" height="10" x="60" y="210" fill="#ffffff" /><rect width="10" height="10" x="70" y="220" fill="#ffffff" /><rect width="10" height="10" x="90" y="220" fill="#ffffff" /><rect width="10" height="10" x="110" y="220" fill="#ffffff" /><rect width="10" height="10" x="130" y="220" fill="#ffffff" /><rect width="10" height="10" x="150" y="220" fill="#ffffff" /><rect width="10" height="10" x="170" y="220" fill="#ffffff" /><rect width="10" height="10" x="190" y="220" fill="#ffffff" /><rect width="10" height="10" x="210" y="220" fill="#ffffff" /><rect width="10" height="10" x="230" y="220" fill="#ffffff" /><rect width="60" height="10" x="100" y="110" fill="#ffc110" /><rect width="60" height="10" x="170" y="110" fill="#f98f30" /><rect width="10" height="10" x="100" y="120" fill="#ffc110" /><rect width="20" height="10" x="110" y="120" fill="#ffffff" /><rect width="20" height="10" x="130" y="120" fill="#000000" /><rect width="10" height="10" x="150" y="120" fill="#ffc110" /><rect width="10" height="10" x="170" y="120" fill="#f98f30" /><rect width="20" height="10" x="180" y="120" fill="#ffffff" /><rect width="20" height="10" x="200" y="120" fill="#000000" /><rect width="10" height="10" x="220" y="120" fill="#f98f30" /><rect width="30" height="10" x="70" y="130" fill="#f98f30" /><rect width="10" height="10" x="100" y="130" fill="#ffc110" /><rect width="20" height="10" x="110" y="130" fill="#ffffff" /><rect width="20" height="10" x="130" y="130" fill="#000000" /><rect width="10" height="10" x="150" y="130" fill="#ffc110" /><rect width="20" height="10" x="160" y="130" fill="#f98f30" /><rect width="20" height="10" x="180" y="130" fill="#ffffff" /><rect width="20" height="10" x="200" y="130" fill="#000000" /><rect width="10" height="10" x="220" y="130" fill="#f98f30" /><rect width="10" height="10" x="70" y="140" fill="#f98f30" /><rect width="10" height="10" x="100" y="140" fill="#ffc110" /><rect width="20" height="10" x="110" y="140" fill="#ffffff" /><rect width="20" height="10" x="130" y="140" fill="#000000" /><rect width="10" height="10" x="150" y="140" fill="#ffc110" /><rect width="10" height="10" x="170" y="140" fill="#f98f30" /><rect width="20" height="10" x="180" y="140" fill="#ffffff" /><rect width="20" height="10" x="200" y="140" fill="#000000" /><rect width="10" height="10" x="220" y="140" fill="#f98f30" /><rect width="10" height="10" x="70" y="150" fill="#f98f30" /><rect width="10" height="10" x="100" y="150" fill="#ffc110" /><rect width="20" height="10" x="110" y="150" fill="#ffffff" /><rect width="20" height="10" x="130" y="150" fill="#000000" /><rect width="10" height="10" x="150" y="150" fill="#ffc110" /><rect width="10" height="10" x="170" y="150" fill="#f98f30" /><rect width="20" height="10" x="180" y="150" fill="#ffffff" /><rect width="20" height="10" x="200" y="150" fill="#000000" /><rect width="10" height="10" x="220" y="150" fill="#f98f30" /><rect width="60" height="10" x="100" y="160" fill="#ffc110" /><rect width="60" height="10" x="170" y="160" fill="#f98f30" /></svg>